{"title":"Katherine of Alexandria (2014) BRrip Xvid Ac3-MiLLENiUM","uid":10786693,"size":1718338873,"categoryP":"video","categoryS":"movies","magnet":"?xt=urn:btih:8562962aa1365065dffe7b1e9aaca7001ceb5a9d&amp;dn=Katherine+of+Alexandria+%282014%29+BRrip+Xvid+Ac3-MiLLENiUM&amp;tr=udp%3A%2F%2Ftracker.openbittorrent.com%3A80&amp;tr=udp%3A%2F%2Fopen.demonii.com%3A1337&amp;tr=udp%3A%2F%2Ftracker.coppersurfer.tk%3A6969&amp;tr=udp%3A%2F%2Fexodus.desync.com%3A6969","seeders":0,"leechers":0,"uploader":"ali1997a","files":4,"time":1408216177,"description":"SilverTorrent - Clean And Verified Torrents Download\n\n &lt;a href=&quot;\nhttp://i.imgur.com/ky6BGho.png&quot; rel=&quot;nofollow&quot; target=&quot;_NEW&quot;&gt;\nhttp://i.imgur.com/ky6BGho.png&lt;/a&gt;\n\n &lt;a href=&quot;\nhttp://i.imgur.com/MqiN8oR.jpg&quot; rel=&quot;nofollow&quot; target=&quot;_NEW&quot;&gt;\nhttp://i.imgur.com/MqiN8oR.jpg&lt;/a&gt;\n\n\n\nKatherine of Alexandria (2014) BRrip Xvid Ac3-MiLLENiUM\n\niMDB: http://www.imdb.com/title/tt1587685/\n\nGeneral\nComplete name: Katherine of Alexandria BRrip Xvid Ac3-MiLLENiUM.avi\nsource: Bluray [thanks]\nFormat: AVI\nFormat/Info: Audio Video Interleave\nFile size: 1.55 GiB\nDuration: 1h 46mn\nOverall bit rate: 2 091 Kbps\n\nVideo\nID: 0\nFormat: MPEG-4 Visual\nFormat profile: Advanced Simple@L5\nFormat settings, BVOP: 2\nFormat settings, QPel: Yes\nFormat settings, GMC: No warppoints\nFormat settings, Matrix: Default (MPEG)\nCodec ID: XVID\nCodec ID/Hint: XviD\nDuration: 1h 46mn\nBit rate: 1 700 Kbps\nWidth: 720 pixels\nHeight: 304 pixels\nDisplay aspect ratio: 2.35:1\nFrame rate: 23.976 fps\nColor space: YUV\nChroma subsampling: 4:2:0\nBit depth: 8 bits\nScan type: Progressive\nCompression mode: Lossy\nBits/(Pixel*Frame): 0.324\nStream size: 1.26 GiB (81%)\nWriting library: XviD 1.2.1 (UTC 2008-12-04)\n\nAudio\nID: 1\nFormat: AC-3\nFormat/Info: Audio Coding 3\nMode extension: CM (complete main)\nCodec ID: 2000\nDuration: 1h 46mn\nBit rate mode: Constant\nBit rate: 384 Kbps\nChannel(s): 6 channels\nChannel positions: Front: L C R, Side: L R, LFE\nSampling rate: 48.0 KHz\nBit depth: 16 bits\nCompression mode: Lossy\nStream size: 292 MiB (18%)\nAlignment: Aligned on interleaves\nInterleave, duration: 64 ms (1.53 video frames)\nInterleave, preload duration: 192 ms\n\n &lt;a href=&quot;\nhttp://i.imgur.com/RyMGjkN.jpg&quot; rel=&quot;nofollow&quot; target=&quot;_NEW&quot;&gt;\nhttp://i.imgur.com/RyMGjkN.jpg&lt;/a&gt;\n &lt;a href=&quot;\nhttp://i.imgur.com/seWYPbK.jpg&quot; rel=&quot;nofollow&quot; target=&quot;_NEW&quot;&gt;\nhttp://i.imgur.com/seWYPbK.jpg&lt;/a&gt;\n &lt;a href=&quot;\nhttp://i.imgur.com/8W1QckK.jpg&quot; rel=&quot;nofollow&quot; target=&quot;_NEW&quot;&gt;\nhttp://i.imgur.com/8W1QckK.jpg&lt;/a&gt;\n &lt;a href=&quot;\nhttp://i.imgur.com/1VBopFf.jpg&quot; rel=&quot;nofollow&quot; target=&quot;_NEW&quot;&gt;\nhttp://i.imgur.com/1VBopFf.jpg&lt;/a&gt;\n\n","torrent":{"xt":"urn:btih:8562962aa1365065dffe7b1e9aaca7001ceb5a9d","amp;dn":"Katherine+of+Alexandria+%282014%29+BRrip+Xvid+Ac3-MiLLENiUM","amp;tr":["udp%3A%2F%2Ftracker.openbittorrent.com%3A80","udp%3A%2F%2Fopen.demonii.com%3A1337","udp%3A%2F%2Ftracker.coppersurfer.tk%3A6969","udp%3A%2F%2Fexodus.desync.com%3A6969"],"infoHash":"8562962aa1365065dffe7b1e9aaca7001ceb5a9d","infoHashBuffer":{"type":"Buffer","data":[133,98,150,42,161,54,80,101,223,254,123,30,154,172,167,0,28,235,90,157]},"announce":[],"urlList":[]}}